<svg width="42" height="58" viewBox="0 0 42 58" fill="none" xmlns="http://www.w3.org/2000/svg">
<path d="M20.9963 46.0211C20.2735 46.0211 19.5946 45.6517 19.1639 45.0229C18.3243 43.9539 8.56348 31.7314 8.56348 23.2739C8.56348 15.8775 14.1265 9.88806 20.9963 9.88806C27.8661 9.88806 33.4291 15.8775 33.4291 23.2739C33.4291 31.7314 23.6756 43.9618 22.8068 45.0072C22.398 45.6517 21.7191 46.029 20.9963 46.0211Z" fill="#7FBF26"/>
<path d="M16.9592 57.717L16.8642 57.5991C12.5934 52.1599 9.55641 47.3967 7.76047 44.3627C2.61359 35.6615 0 28.3437 0 22.5979C0 10.1396 9.4177 0 20.989 0C32.2976 0 41.5474 9.6837 41.9635 21.749L41.9781 22.4564L41.9927 23.0302C41.9343 28.5245 37.1232 40.9906 35.1448 40.9906H35.1375C35.0572 40.9906 34.9842 40.9906 34.9185 40.9749C33.6774 40.8099 31.4726 39.7016 32.6553 37.4221C33.3197 36.1409 34.9769 34.3724 35.7653 31.9358C37.0137 28.0686 35.9552 24.8852 38.9995 24.8852V21.749C38.5906 11.4444 30.6696 3.19122 20.989 3.19122C11.0457 3.19122 2.96402 11.9003 2.96402 22.5979C2.96402 27.652 5.4827 34.5846 10.2573 42.6413C12.0021 45.5967 14.9661 50.2263 19.1274 55.5319L19.2515 55.697C19.2734 55.7441 19.3172 55.8227 19.3391 55.8699C19.7261 57.1983 18.485 58.4087 17.295 57.8664L16.9592 57.717Z" fill="#7FBF26"/>
</svg>
