<svg width="244" height="70" viewBox="0 0 244 70" fill="none" xmlns="http://www.w3.org/2000/svg">
<g clip-path="url(#clip0)">
<path d="M78.4036 69.3913C77.8224 69.602 76.683 69.9532 75.3345 69.9532C73.8231 69.9532 72.5908 69.5786 71.6142 68.6187C70.7539 67.7759 70.2191 66.4649 70.2191 64.8963C70.2191 61.8997 72.2653 59.7224 75.5902 59.7224C76.7295 59.7224 77.6596 59.9799 78.0781 60.1906L77.7526 61.2442C77.2178 61.01 76.5668 60.8227 75.5437 60.8227C73.1256 60.8227 71.5445 62.3445 71.5445 64.8495C71.5445 67.3779 73.0558 68.8997 75.381 68.8997C76.218 68.8997 76.7993 68.7826 77.0783 68.6187V65.6221H75.0554V64.592H78.3339V69.3913H78.4036Z" fill="#9E9E9E"/>
<path d="M92.1685 64.7324C92.1685 68.1739 90.0991 70 87.5414 70C84.8908 70 83.0772 67.9398 83.0772 64.9197C83.0772 61.7358 85.0303 59.6522 87.681 59.6522C90.4014 59.6522 92.1685 61.7592 92.1685 64.7324ZM84.4258 64.8729C84.4258 67.0268 85.5883 68.9465 87.6112 68.9465C89.6573 68.9465 90.7966 67.0502 90.7966 64.7793C90.7966 62.7893 89.7736 60.7057 87.6345 60.7057C85.4953 60.7057 84.4258 62.6956 84.4258 64.8729Z" fill="#9E9E9E"/>
<path d="M109.979 59.8161H111.281V68.7358H115.536V69.8361H109.979V59.8161Z" fill="#9E9E9E"/>
<path d="M128.208 64.7324C128.208 68.1739 126.139 70 123.581 70C120.93 70 119.117 67.9398 119.117 64.9197C119.117 61.7358 121.07 59.6522 123.721 59.6522C126.441 59.6522 128.208 61.7592 128.208 64.7324ZM120.465 64.8729C120.465 67.0268 121.628 68.9465 123.651 68.9465C125.697 68.9465 126.836 67.0502 126.836 64.7793C126.836 62.7893 125.813 60.7057 123.674 60.7057C121.535 60.7057 120.465 62.6956 120.465 64.8729Z" fill="#9E9E9E"/>
<path d="M140.113 69.5084C139.648 69.7425 138.694 69.9766 137.485 69.9766C134.672 69.9766 132.579 68.1973 132.579 64.8963C132.579 61.7592 134.695 59.6288 137.764 59.6288C138.997 59.6288 139.787 59.8863 140.136 60.0736L139.811 61.1271C139.322 60.893 138.625 60.7057 137.811 60.7057C135.463 60.7057 133.928 62.204 133.928 64.8495C133.928 67.3077 135.323 68.8763 137.741 68.8763C138.532 68.8763 139.322 68.7124 139.857 68.4548L140.113 69.5084Z" fill="#9E9E9E"/>
<path d="M146.67 66.6756L145.647 69.8361H144.321L147.716 59.8161H149.251L152.645 69.8361H151.273L150.204 66.6756H146.67ZM149.948 65.6689L148.972 62.7893C148.762 62.1338 148.6 61.5251 148.46 60.9632H148.414C148.274 61.5485 148.111 62.1572 147.925 62.7659L146.949 65.6689H149.948Z" fill="#9E9E9E"/>
<path d="M157.412 59.8161H158.714V68.7358H162.969V69.8361H157.412V59.8161Z" fill="#9E9E9E"/>
<path d="M69.7774 38.1839C70.4284 39.7057 71.312 41.0401 72.4513 42.1873C73.5906 43.3344 74.8927 44.2241 76.4273 44.903C77.9386 45.5585 79.5895 45.8863 81.3333 45.8863C82.7981 45.8863 84.1467 45.6756 85.3791 45.2308C86.6114 44.786 87.7042 44.1773 88.6807 43.3579C89.6573 42.5385 90.4478 41.602 91.0989 40.4783C91.7499 39.3545 92.215 38.1137 92.494 36.7793H84.635C84.3327 36.7793 84.077 36.6622 83.8677 36.4515C83.6584 36.2408 83.5654 35.9833 83.5654 35.6789C83.5654 35.398 83.6584 35.1405 83.8677 34.9298C84.077 34.7191 84.3327 34.602 84.635 34.602H93.6798C94.0053 34.6254 94.2611 34.7191 94.4936 34.9064C94.7261 35.0936 94.8191 35.3512 94.8191 35.6789C94.6331 37.4348 94.1448 39.0736 93.4008 40.5719C92.6567 42.0702 91.6802 43.3813 90.4944 44.4816C89.3085 45.5819 87.9367 46.4482 86.3789 47.0803C84.821 47.7124 83.1237 48.0167 81.3101 48.0167C79.9615 48.0167 78.6594 47.8528 77.4038 47.5017C76.1482 47.1505 74.9857 46.6589 73.8929 46.0033C72.8 45.3478 71.8235 44.5753 70.9399 43.6856C70.0564 42.796 69.2891 41.7893 68.6613 40.689C68.0335 39.5886 67.5452 38.4181 67.1965 37.1538C66.8477 35.8896 66.6849 34.5786 66.6849 33.2207C66.6849 31.8863 66.8477 30.5987 67.1965 29.3345C67.5452 28.0702 68.0103 26.8997 68.6613 25.7993C69.2891 24.699 70.0564 23.6923 70.9399 22.7793C71.8235 21.8662 72.8 21.0936 73.8929 20.4381C74.9857 19.7826 76.1482 19.291 77.4038 18.9164C78.6594 18.5652 79.9847 18.3779 81.3566 18.3779C83.3097 18.3779 85.193 18.7525 86.9601 19.4783C88.7505 20.204 90.3548 21.3044 91.8197 22.7793C92.0522 22.99 92.1685 23.2475 92.1685 23.5284C92.1685 23.8328 92.0522 24.0669 91.8429 24.301C91.6337 24.5117 91.3779 24.6288 91.0756 24.6288C90.7734 24.6288 90.5176 24.5117 90.3083 24.301C89.076 23.0602 87.6809 22.1237 86.1231 21.4916C84.5652 20.8595 82.9842 20.5552 81.3566 20.5552C79.6825 20.5552 78.0781 20.8829 76.5668 21.5151C75.0554 22.1706 73.7301 23.0368 72.5908 24.1839C71.4515 25.3077 70.5447 26.6421 69.8936 28.1873C69.2193 29.7324 68.8938 31.3946 68.8938 33.1739C68.8241 35 69.1496 36.6388 69.7774 38.1839Z" fill="#7FBF26"/>
<path d="M100.353 38.2074C100.446 39.3077 100.725 40.3144 101.19 41.2508C101.655 42.1873 102.283 43.0067 103.027 43.709C103.771 44.4114 104.631 44.9498 105.608 45.3478C106.584 45.7458 107.631 45.9565 108.723 45.9565C110.026 45.9565 111.235 45.699 112.351 45.1605C113.467 44.6221 114.374 43.9197 115.071 43.0067C115.443 42.7023 115.792 42.6087 116.164 42.7257C116.35 42.796 116.513 42.913 116.629 43.1237C116.792 43.311 116.885 43.5686 116.885 43.8495C116.885 44.1304 116.768 44.388 116.489 44.6455C115.606 45.6288 114.536 46.4482 113.234 47.0803C111.932 47.7124 110.444 48.0401 108.723 48.0401C107.235 48.0401 105.84 47.7592 104.538 47.1973C103.236 46.6354 102.097 45.8629 101.12 44.8796C100.144 43.8963 99.3764 42.7492 98.7951 41.4381C98.2138 40.1271 97.9581 38.7224 97.9581 37.2007C97.9581 35.6789 98.2371 34.2977 98.7951 32.9866C99.3532 31.6756 100.12 30.5284 101.12 29.5451C102.097 28.5619 103.236 27.7893 104.538 27.2274C105.84 26.6656 107.235 26.3846 108.723 26.3846C110.188 26.3846 111.583 26.6656 112.909 27.2274C114.211 27.7893 115.35 28.5619 116.327 29.5217C117.303 30.505 118.071 31.6522 118.652 32.9632C119.233 34.2742 119.512 35.6789 119.512 37.1538C119.512 37.4582 119.419 37.7157 119.21 37.903C119.024 38.0903 118.768 38.2074 118.466 38.2074H100.353ZM117.303 36.3579C117.233 35.2575 116.954 34.2274 116.489 33.2676C116.024 32.3077 115.397 31.4649 114.629 30.7625C113.862 30.0602 112.978 29.4983 111.979 29.0769C110.979 28.6789 109.909 28.4682 108.793 28.4682C107.677 28.4682 106.608 28.6789 105.608 29.0769C104.608 29.4749 103.724 30.0602 102.98 30.7625C102.236 31.4883 101.609 32.3311 101.144 33.291C100.678 34.2508 100.399 35.2809 100.33 36.3813H117.303V36.3579Z" fill="#7FBF26"/>
<path d="M127.836 26.3847H131.277C131.58 26.3847 131.835 26.4783 132.045 26.689C132.254 26.8997 132.37 27.1572 132.37 27.4616C132.37 27.7893 132.254 28.0469 132.045 28.2341C131.835 28.4449 131.58 28.5385 131.277 28.5385H127.836V46.6823C127.836 46.9867 127.72 47.2442 127.511 47.4315C127.301 47.6422 127.046 47.7358 126.743 47.7358C126.441 47.7358 126.185 47.6422 125.976 47.4315C125.767 47.2208 125.674 46.9632 125.674 46.6823V28.5385H122.86C122.558 28.5385 122.302 28.4214 122.093 28.2107C121.884 28 121.767 27.7425 121.767 27.4382C121.767 27.1338 121.884 26.8763 122.093 26.6656C122.302 26.4549 122.558 26.3612 122.86 26.3612H125.674V19.7592C125.674 19.4549 125.767 19.1974 125.976 18.9867C126.185 18.776 126.441 18.6823 126.743 18.6823C127.046 18.6823 127.301 18.776 127.511 18.9867C127.72 19.1974 127.836 19.4549 127.836 19.7592V26.3847Z" fill="#7FBF26"/>
<path d="M137.764 38.1839C138.415 39.7057 139.299 41.0401 140.438 42.1873C141.578 43.3344 142.88 44.2241 144.414 44.903C145.926 45.5585 147.576 45.8863 149.32 45.8863C150.785 45.8863 152.134 45.6756 153.366 45.2308C154.598 44.786 155.691 44.1773 156.668 43.3579C157.644 42.5385 158.435 41.602 159.086 40.4783C159.737 39.3545 160.202 38.1137 160.481 36.7793H152.645C152.343 36.7793 152.087 36.6622 151.878 36.4515C151.669 36.2408 151.576 35.9833 151.576 35.6789C151.576 35.398 151.669 35.1405 151.878 34.9298C152.087 34.7191 152.343 34.602 152.645 34.602H161.69C162.016 34.6254 162.271 34.7191 162.504 34.9064C162.736 35.0936 162.829 35.3512 162.829 35.6789C162.643 37.4348 162.155 39.0736 161.411 40.5719C160.667 42.0702 159.69 43.3813 158.505 44.4816C157.319 45.5819 155.947 46.4482 154.389 47.0803C152.831 47.7124 151.134 48.0167 149.32 48.0167C147.972 48.0167 146.67 47.8528 145.414 47.5017C144.159 47.1505 142.996 46.6589 141.903 46.0033C140.81 45.3478 139.834 44.5753 138.95 43.6856C138.067 42.796 137.299 41.7893 136.672 40.689C136.044 39.5886 135.555 38.4181 135.207 37.1538C134.858 35.8896 134.695 34.5786 134.695 33.2207C134.695 31.8863 134.858 30.5987 135.207 29.3345C135.555 28.0702 136.021 26.8997 136.672 25.7993C137.299 24.699 138.067 23.6923 138.95 22.7793C139.834 21.8662 140.81 21.0936 141.903 20.4381C142.996 19.7826 144.159 19.291 145.414 18.9164C146.67 18.5652 147.995 18.3779 149.367 18.3779C151.32 18.3779 153.203 18.7525 154.97 19.4783C156.761 20.204 158.365 21.3044 159.83 22.7793C160.062 22.99 160.179 23.2475 160.179 23.5284C160.179 23.8328 160.062 24.0669 159.853 24.301C159.644 24.5117 159.388 24.6288 159.086 24.6288C158.784 24.6288 158.528 24.5117 158.319 24.301C157.086 23.0602 155.691 22.1237 154.133 21.4916C152.576 20.8595 150.994 20.5552 149.367 20.5552C147.693 20.5552 146.088 20.8829 144.577 21.5151C143.066 22.1706 141.74 23.0368 140.601 24.1839C139.462 25.3077 138.555 26.6421 137.904 28.1873C137.23 29.7324 136.904 31.3946 136.904 33.1739C136.788 35 137.113 36.6388 137.764 38.1839Z" fill="#7FBF26"/>
<path d="M167.34 26.6656C167.549 26.4549 167.805 26.3612 168.131 26.3612C168.41 26.3612 168.665 26.4549 168.875 26.6656C169.084 26.8763 169.177 27.1338 169.177 27.4615V37.3411C169.177 40.0569 169.758 42.1171 170.898 43.5217C172.06 44.9264 173.641 45.6288 175.664 45.6288C176.664 45.6288 177.617 45.4181 178.524 44.9967C179.431 44.5753 180.198 44.0134 180.872 43.2642C181.523 42.5385 182.058 41.6722 182.454 40.6656C182.849 39.6823 183.035 38.6054 183.035 37.4348V27.4615C183.035 27.1572 183.128 26.8997 183.337 26.6656C183.546 26.4549 183.802 26.3378 184.104 26.3378C184.407 26.3378 184.662 26.4549 184.872 26.6656C185.081 26.8763 185.197 27.1572 185.197 27.4381V46.6355C185.197 46.9398 185.081 47.1973 184.872 47.408C184.662 47.6187 184.407 47.7358 184.104 47.7358C183.802 47.7358 183.546 47.6187 183.337 47.408C183.128 47.1973 183.035 46.9164 183.035 46.6355V43.1706C182.593 43.8495 182.105 44.4582 181.523 45.0201C180.965 45.5819 180.361 46.0502 179.71 46.4482C179.059 46.8462 178.385 47.1505 177.664 47.3846C176.943 47.5953 176.199 47.7124 175.432 47.7124C174.13 47.7124 172.967 47.4783 171.944 46.9866C170.898 46.5184 170.014 45.8161 169.293 44.9264C168.572 44.0368 168.014 42.9365 167.619 41.6488C167.224 40.3612 167.038 38.8863 167.038 37.2709V27.3913C167.038 27.1338 167.131 26.8763 167.34 26.6656Z" fill="#7FBF26"/>
<path d="M190.638 20.4615C190.894 20.1806 191.219 20.0635 191.615 20.0635C192.01 20.0635 192.359 20.204 192.638 20.4615C192.917 20.7425 193.033 21.0702 193.033 21.4916C193.033 21.8662 192.893 22.194 192.638 22.4749C192.359 22.7558 192.033 22.8729 191.615 22.8729C191.219 22.8729 190.894 22.7324 190.638 22.4749C190.382 22.194 190.243 21.8662 190.243 21.4916C190.243 21.0702 190.382 20.7191 190.638 20.4615ZM192.707 46.6589C192.707 46.9632 192.614 47.2207 192.405 47.4548C192.196 47.6655 191.94 47.7826 191.638 47.7826C191.336 47.7826 191.08 47.6655 190.871 47.4548C190.661 47.2441 190.545 46.9632 190.545 46.6589V27.4615C190.545 27.1572 190.661 26.8997 190.871 26.689C191.08 26.4783 191.336 26.3612 191.638 26.3612C191.94 26.3612 192.196 26.4783 192.405 26.689C192.614 26.8997 192.707 27.1572 192.707 27.4615V46.6589Z" fill="#7FBF26"/>
<path d="M218.33 46.7057C218.33 47.0101 218.214 47.2676 218.005 47.4549C217.796 47.6656 217.54 47.7592 217.238 47.7592C216.935 47.7592 216.68 47.6656 216.47 47.4549C216.261 47.2442 216.168 46.9867 216.168 46.7057V43.6857C215.168 45.0201 213.936 46.0736 212.448 46.8462C210.96 47.6188 209.332 48.0168 207.565 48.0168C206.1 48.0168 204.705 47.7358 203.38 47.174C202.078 46.6121 200.938 45.8395 199.962 44.8562C198.985 43.8729 198.218 42.7258 197.637 41.4148C197.079 40.1037 196.8 38.699 196.8 37.2007C196.8 35.7024 197.079 34.2977 197.637 32.9632C198.195 31.6522 198.962 30.5051 199.962 29.5218C200.938 28.5385 202.078 27.7659 203.38 27.2041C204.682 26.6422 206.077 26.3612 207.565 26.3612C209.332 26.3612 210.96 26.7358 212.448 27.5084C213.936 28.281 215.168 29.3345 216.168 30.6689V19.7592C216.168 19.4549 216.261 19.1974 216.47 18.9867C216.68 18.776 216.935 18.6823 217.238 18.6823C217.54 18.6823 217.796 18.776 218.005 18.9867C218.214 19.1974 218.33 19.4549 218.33 19.7592V46.7057ZM199.66 40.5251C200.101 41.5786 200.706 42.4917 201.496 43.2643C202.264 44.0368 203.171 44.6689 204.217 45.1372C205.263 45.6054 206.379 45.8395 207.588 45.8395C208.797 45.8395 209.937 45.6054 210.983 45.1372C212.029 44.6689 212.936 44.0602 213.703 43.2643C214.471 42.4917 215.075 41.5786 215.517 40.5251C215.959 39.4716 216.191 38.3479 216.191 37.1773C216.191 35.9833 215.959 34.8596 215.517 33.8061C215.075 32.7525 214.471 31.8395 213.68 31.0669C212.913 30.2944 212.006 29.6622 210.96 29.2174C209.913 28.7726 208.797 28.5385 207.588 28.5385C206.379 28.5385 205.263 28.7726 204.217 29.2174C203.171 29.6622 202.264 30.2709 201.496 31.0669C200.729 31.8395 200.101 32.7525 199.66 33.8061C199.218 34.8596 198.985 35.9833 198.985 37.1773C198.985 38.3479 199.195 39.4716 199.66 40.5251Z" fill="#7FBF26"/>
<path d="M224.841 38.2074C224.934 39.3077 225.213 40.3144 225.678 41.2508C226.143 42.1873 226.771 43.0067 227.515 43.709C228.259 44.4114 229.119 44.9498 230.096 45.3478C231.072 45.7458 232.119 45.9565 233.211 45.9565C234.513 45.9565 235.723 45.699 236.839 45.1605C237.955 44.6221 238.861 43.9197 239.559 43.0067C239.931 42.7023 240.28 42.6087 240.652 42.7257C240.838 42.796 241.001 42.913 241.117 43.1237C241.28 43.311 241.373 43.5686 241.373 43.8495C241.373 44.1304 241.256 44.388 240.977 44.6455C240.094 45.6288 239.024 46.4482 237.722 47.0803C236.42 47.7124 234.932 48.0401 233.211 48.0401C231.723 48.0401 230.328 47.7592 229.026 47.1973C227.724 46.6354 226.585 45.8629 225.608 44.8796C224.632 43.8963 223.864 42.7492 223.283 41.4381C222.702 40.1271 222.446 38.7224 222.446 37.2007C222.446 35.6789 222.725 34.2977 223.283 32.9866C223.841 31.6756 224.608 30.5284 225.608 29.5451C226.585 28.5619 227.724 27.7893 229.026 27.2274C230.328 26.6656 231.723 26.3846 233.211 26.3846C234.676 26.3846 236.071 26.6656 237.397 27.2274C238.722 27.7893 239.838 28.5619 240.815 29.5217C241.791 30.505 242.558 31.6522 243.14 32.9632C243.721 34.2742 244 35.6789 244 37.1538C244 37.4582 243.907 37.7157 243.698 37.903C243.512 38.0903 243.256 38.2074 242.954 38.2074H224.841ZM241.791 36.3579C241.721 35.2575 241.442 34.2274 240.977 33.2676C240.512 32.3077 239.885 31.4649 239.117 30.7625C238.35 30.0602 237.466 29.4983 236.467 29.0769C235.467 28.6789 234.397 28.4682 233.281 28.4682C232.142 28.4682 231.095 28.6789 230.096 29.0769C229.096 29.4749 228.212 30.0602 227.468 30.7625C226.724 31.4883 226.096 32.3311 225.631 33.291C225.166 34.2508 224.887 35.2809 224.818 36.3813H241.791V36.3579Z" fill="#7FBF26"/>
<path d="M27.0414 55.4381C26.1113 55.4381 25.2277 54.9933 24.693 54.2441C23.6234 52.9565 11.0444 38.2308 11.0444 28.0468C11.0444 19.1505 18.2058 11.9164 27.0646 11.9164C35.9234 11.9164 43.0848 19.1271 43.0848 28.0468C43.0848 38.2308 30.5291 52.9565 29.413 54.2207C28.855 54.9699 27.9714 55.4381 27.0414 55.4381Z" fill="#7FBF26"/>
<path d="M21.833 69.5084L21.7168 69.3679C16.2062 62.8127 12.3 57.0769 9.99809 53.4247C3.37145 42.9365 0 34.1338 0 27.204C0 12.2207 12.1372 0 27.0414 0C41.62 0 53.5247 11.6589 54.0595 26.1973L54.0827 27.0401L54.106 27.7425C54.0362 34.3679 47.8281 49.3746 45.2937 49.3746C45.2007 49.3746 45.1077 49.3746 45.0147 49.3512C43.4103 49.1405 40.5737 47.806 42.1082 45.0669C42.9685 43.5217 45.1077 41.3913 46.1075 38.4649C47.7118 33.806 46.3632 29.9666 50.2695 29.9666V26.1739C49.7347 13.7659 39.5273 3.81605 27.0646 3.81605C14.2531 3.81605 3.83648 14.3043 3.83648 27.204C3.83648 33.291 7.09167 41.6488 13.23 51.3411C15.4854 54.8997 19.2986 60.4716 24.6465 66.8629L24.8092 67.0502C24.8325 67.097 24.879 67.1906 24.9255 67.2609C25.4138 68.8762 23.8327 70.3278 22.2981 69.6722L21.833 69.5084Z" fill="#7FBF26"/>
</g>
<defs>
<clipPath id="clip0">
<rect width="244" height="70" fill="white"/>
</clipPath>
</defs>
</svg>
