<svg width="75" height="100" viewBox="0 0 75 100" fill="none" xmlns="http://www.w3.org/2000/svg">
<rect width="75" height="100" rx="15" fill="#4C8E00"/>
<rect x="6" y="78" width="63" height="15" rx="7.5" fill="white"/>
<path d="M30.362 84.352V85.471H31.814V86.152H30.362V87.295H32.228V88H29.456V83.647H32.228V84.352H30.362ZM37.7076 85.822C37.7076 86.14 37.6536 86.433 37.5456 86.701C37.4396 86.967 37.2886 87.196 37.0926 87.388C36.8986 87.58 36.6646 87.73 36.3906 87.838C36.1166 87.946 35.8126 88 35.4786 88H33.8046V83.647H35.4786C35.8126 83.647 36.1166 83.701 36.3906 83.809C36.6646 83.917 36.8986 84.068 37.0926 84.262C37.2886 84.454 37.4396 84.683 37.5456 84.949C37.6536 85.215 37.7076 85.506 37.7076 85.822ZM36.7836 85.822C36.7836 85.594 36.7536 85.389 36.6936 85.207C36.6336 85.025 36.5476 84.871 36.4356 84.745C36.3236 84.619 36.1866 84.522 36.0246 84.454C35.8646 84.386 35.6826 84.352 35.4786 84.352H34.7106V87.295H35.4786C35.6826 87.295 35.8646 87.262 36.0246 87.196C36.1866 87.128 36.3236 87.031 36.4356 86.905C36.5476 86.777 36.6336 86.622 36.6936 86.44C36.7536 86.258 36.7836 86.052 36.7836 85.822ZM40.1784 88H39.2724V83.647H40.1784V88ZM45.0732 84.373H43.8012V88H42.8982V84.373H41.6262V83.647H45.0732V84.373Z" fill="#4C8E00"/>
<path fill-rule="evenodd" clip-rule="evenodd" d="M45.8438 16C46.7853 16 47.5903 16.6037 47.885 17.4519L50.875 26.0625V37.5625C50.875 38.3531 50.2353 39 49.4375 39H48C47.2094 39 46.5625 38.3531 46.5625 37.5625V36.125H29.3125V37.5625C29.3125 38.3531 28.6728 39 27.875 39H26.4375C25.6469 39 25 38.3531 25 37.5625V26.0625L27.99 17.4519C28.2847 16.6037 29.0897 16 30.0312 16H45.8438ZM27.8748 29.6572C27.8748 30.8503 28.8379 31.8134 30.031 31.8134C31.2241 31.8134 32.1873 30.8503 32.1873 29.6572C32.1873 28.4641 31.2241 27.5009 30.031 27.5009C28.8379 27.5009 27.8748 28.4641 27.8748 29.6572ZM45.844 31.8134C44.6509 31.8134 43.6877 30.8503 43.6877 29.6572C43.6877 28.4641 44.6509 27.5009 45.844 27.5009C47.0371 27.5009 48.0002 28.4641 48.0002 29.6572C48.0002 30.8503 47.0371 31.8134 45.844 31.8134ZM30.031 18.1562L27.8748 24.625H47.9998L45.8435 18.1562H30.031Z" fill="white"/>
<path d="M23.3075 60.9275V56.1597H24.5457C25.745 56.1597 26.7297 56.9397 26.7297 58.5582C26.7297 60.1572 25.7352 60.9275 24.536 60.9275H23.3075ZM24.575 62C26.447 62 27.9485 60.7715 27.9485 58.5582C27.9485 56.3352 26.4665 55.0872 24.5847 55.0872H22.1375V62H24.575ZM31.8551 57.2225C31.8063 57.2127 31.6893 57.1932 31.5528 57.1932C30.9288 57.1932 30.4023 57.4955 30.1781 58.0122V57.2517H29.0763V62H30.2073V59.738C30.2073 58.8507 30.6071 58.3437 31.4846 58.3437C31.6016 58.3437 31.7283 58.3535 31.8551 58.373V57.2225ZM33.9205 62V57.2517H32.7992V62H33.9205ZM32.6237 55.5845C32.6237 55.994 32.9552 56.3157 33.355 56.3157C33.7645 56.3157 34.096 55.994 34.096 55.5845C34.096 55.175 33.7645 54.8435 33.355 54.8435C32.9552 54.8435 32.6237 55.175 32.6237 55.5845ZM39.6696 57.2517H38.4801L37.2516 60.6447L35.9938 57.2517H34.7458L36.6763 62H37.8073L39.6696 57.2517ZM41.6234 62V57.2517H40.5021V62H41.6234ZM40.3266 55.5845C40.3266 55.994 40.6581 56.3157 41.0579 56.3157C41.4674 56.3157 41.7989 55.994 41.7989 55.5845C41.7989 55.175 41.4674 54.8435 41.0579 54.8435C40.6581 54.8435 40.3266 55.175 40.3266 55.5845ZM44.2134 59.2602C44.2134 58.6362 44.5547 58.139 45.1982 58.139C45.9099 58.139 46.1732 58.607 46.1732 59.192V62H47.3042V58.997C47.3042 57.9537 46.7484 57.1152 45.5882 57.1152C45.0617 57.1152 44.4962 57.3395 44.1842 57.8855V57.2517H43.0824V62H44.2134V59.2602ZM48.3398 62.2633C48.4666 63.2188 49.3441 63.9988 50.6018 63.9988C52.3861 63.9988 53.0393 62.819 53.0393 61.5515V57.2517H51.9473V57.8562C51.7426 57.4662 51.2843 57.164 50.5433 57.164C49.2368 57.164 48.3496 58.2072 48.3496 59.4747C48.3496 60.8105 49.2758 61.7855 50.5433 61.7855C51.2356 61.7855 51.7133 61.4637 51.9181 61.0932V61.5905C51.9181 62.5558 51.4696 63.014 50.5726 63.014C49.9193 63.014 49.4611 62.5753 49.3831 61.9902L48.3398 62.2633ZM50.7286 60.8202C49.9876 60.8202 49.4903 60.3035 49.4903 59.4747C49.4903 58.6655 50.0071 58.139 50.7286 58.139C51.4306 58.139 51.9473 58.6655 51.9473 59.4747C51.9473 60.2937 51.4501 60.8202 50.7286 60.8202Z" fill="white"/>
</svg>
