<svg width="55" height="76" viewBox="0 0 55 76" fill="none" xmlns="http://www.w3.org/2000/svg">
<rect x="0.0871582" width="54.0871" height="56.4387" rx="15.6774" fill="#4C8E00"/>
<path fill-rule="evenodd" clip-rule="evenodd" d="M36.929 17.2451C36.929 18.9768 35.5252 20.3806 33.7936 20.3806C32.0619 20.3806 30.6581 18.9768 30.6581 17.2451C30.6581 15.5134 32.0619 14.1096 33.7936 14.1096C35.5252 14.1096 36.929 15.5134 36.929 17.2451ZM31.5185 21.1646H36.0305C37.7894 21.1646 39.2042 22.5575 39.2807 24.2893V30.6893C39.2425 32.1952 38.1718 33.4752 36.6806 33.7764V40.7788C36.6806 42.0588 35.6099 43.1129 34.3098 43.1129H33.2774C31.9773 43.1129 30.9067 42.0588 30.9067 40.7788V33.8141C29.3772 33.5129 28.3065 32.2329 28.3065 30.727V24.3269C28.3065 22.5575 29.7595 21.1646 31.5185 21.1646Z" fill="#B3DE81"/>
<path fill-rule="evenodd" clip-rule="evenodd" d="M23.6032 17.2451C23.6032 18.9768 22.1994 20.3806 20.4678 20.3806C18.7361 20.3806 17.3323 18.9768 17.3323 17.2451C17.3323 15.5134 18.7361 14.1096 20.4678 14.1096C22.1994 14.1096 23.6032 15.5134 23.6032 17.2451ZM18.1927 21.1646H22.7047C24.4636 21.1646 25.8784 22.5575 25.9549 24.2893V30.6893C25.9167 32.1952 24.846 33.4752 23.3547 33.7764V40.7788C23.3547 42.0588 22.2841 43.1129 20.984 43.1129H19.9516C18.6515 43.1129 17.5809 42.0588 17.5809 40.7788V33.8141C16.0514 33.5129 14.9807 32.2329 14.9807 30.727V24.3269C14.9807 22.5575 16.4337 21.1646 18.1927 21.1646Z" fill="#B3DE81"/>
<path fill-rule="evenodd" clip-rule="evenodd" d="M19.46 31.2277C19.46 32.0234 18.8584 32.6684 18.1162 32.6684C17.3741 32.6684 16.7725 32.0234 16.7725 31.2277C16.7725 30.4321 17.3741 29.7871 18.1162 29.7871C18.8584 29.7871 19.46 30.4321 19.46 31.2277ZM17.1411 33.0286H19.0748C19.8286 33.0286 20.435 33.6686 20.4678 34.4643V37.4048C20.4514 38.0967 19.9925 38.6848 19.3534 38.8232V42.0405C19.3534 42.6286 18.8945 43.113 18.3374 43.113H17.8949C17.3377 43.113 16.8789 42.6286 16.8789 42.0405V38.8405C16.2234 38.7021 15.7645 38.114 15.7645 37.4221V34.4815C15.7645 33.6686 16.3873 33.0286 17.1411 33.0286Z" fill="white"/>
<path fill-rule="evenodd" clip-rule="evenodd" d="M13.189 31.2277C13.189 32.0234 12.5874 32.6684 11.8452 32.6684C11.1031 32.6684 10.5015 32.0234 10.5015 31.2277C10.5015 30.4321 11.1031 29.7871 11.8452 29.7871C12.5874 29.7871 13.189 30.4321 13.189 31.2277ZM10.8701 33.0286H12.8038C13.5576 33.0286 14.164 33.6686 14.1968 34.4643V37.4048C14.1804 38.0967 13.7215 38.6848 13.0824 38.8232V42.0405C13.0824 42.6286 12.6236 43.113 12.0664 43.113H11.6239C11.0667 43.113 10.6079 42.6286 10.6079 42.0405V38.8405C9.95238 38.7021 9.49353 38.114 9.49353 37.4221V34.4815C9.49353 33.6686 10.1163 33.0286 10.8701 33.0286Z" fill="white"/>
<path d="M12.3665 71.9258V69.0113H15.3013V67.8802H12.3665V65.8523H15.6376V64.7008H11.1436V71.9258H12.3665ZM16.0501 70.5807C16.0501 71.3653 16.6921 72.0786 17.7315 72.0786C18.5366 72.0786 19.0257 71.671 19.2601 71.294C19.2601 71.6914 19.3008 71.8952 19.311 71.9258H20.4116C20.4014 71.8748 20.3504 71.5793 20.3504 71.1309V68.6649C20.3504 67.6764 19.7696 66.8102 18.241 66.8102C17.0182 66.8102 16.2437 67.5745 16.152 68.4305L17.2322 68.6751C17.2832 68.1757 17.6296 67.7783 18.2512 67.7783C18.9034 67.7783 19.1887 68.1146 19.1887 68.5324C19.1887 68.7056 19.1072 68.8483 18.8219 68.8891L17.5481 69.0827C16.7023 69.205 16.0501 69.6941 16.0501 70.5807ZM17.9557 71.1513C17.487 71.1513 17.2322 70.8456 17.2322 70.5093C17.2322 70.1017 17.5277 69.8979 17.8946 69.8368L19.1887 69.6431V69.8673C19.1887 70.8354 18.6181 71.1513 17.9557 71.1513ZM22.9513 71.9258V68.9808C22.9513 68.349 23.3487 67.8802 23.9805 67.8802C24.6531 67.8802 24.9384 68.3286 24.9384 68.8993V71.9258H26.1001V68.9808C26.1001 68.3694 26.5077 67.8802 27.1293 67.8802C27.7917 67.8802 28.0872 68.3184 28.0872 68.8993V71.9258H29.2285V68.7056C29.2285 67.3911 28.3725 66.8204 27.4758 66.8204C26.8338 66.8204 26.2529 67.0446 25.8657 67.6968C25.6008 67.1159 25.0301 66.8204 24.3779 66.8204C23.8175 66.8204 23.1958 67.0854 22.9105 67.5949V66.9631H21.7794V71.9258H22.9513ZM31.8479 71.9258V66.9631H30.676V71.9258H31.8479ZM30.4926 65.2205C30.4926 65.6485 30.8391 65.9848 31.2569 65.9848C31.6849 65.9848 32.0313 65.6485 32.0313 65.2205C32.0313 64.7926 31.6849 64.4461 31.2569 64.4461C30.8391 64.4461 30.4926 64.7926 30.4926 65.2205ZM34.555 71.9258V64.548H33.3729V71.9258H34.555ZM37.5878 73.9333L40.7468 66.9631H39.4934L38.1585 70.1017L36.7319 66.9631H35.3969L37.5165 71.3347L36.3242 73.9333H37.5878Z" fill="#4C8E00"/>
</svg>
