<svg width="55" height="76" viewBox="0 0 55 76" fill="none" xmlns="http://www.w3.org/2000/svg">
<rect x="0.26123" width="54.0871" height="56.4387" rx="15.6774" fill="#4C8E00"/>
<path fill-rule="evenodd" clip-rule="evenodd" d="M44.1581 17.2451C44.1581 18.9768 42.7542 20.3806 41.0226 20.3806C39.2909 20.3806 37.8871 18.9768 37.8871 17.2451C37.8871 15.5134 39.2909 14.1096 41.0226 14.1096C42.7542 14.1096 44.1581 15.5134 44.1581 17.2451ZM38.7475 21.1646H43.2595C45.0184 21.1646 46.4332 22.5575 46.5097 24.2893V30.6893C46.4715 32.1952 45.4008 33.4752 43.9096 33.7764V40.7788C43.9096 42.0588 42.8389 43.1129 41.5388 43.1129H40.5064C39.2063 43.1129 38.1357 42.0588 38.1357 40.7788V33.8141C36.6062 33.5129 35.5355 32.2329 35.5355 30.727V24.3269C35.5355 22.5575 36.9886 21.1646 38.7475 21.1646Z" fill="#B3DE81"/>
<path fill-rule="evenodd" clip-rule="evenodd" d="M30.8322 17.2451C30.8322 18.9768 29.4284 20.3806 27.6968 20.3806C25.9651 20.3806 24.5613 18.9768 24.5613 17.2451C24.5613 15.5134 25.9651 14.1096 27.6968 14.1096C29.4284 14.1096 30.8322 15.5134 30.8322 17.2451ZM25.4217 21.1646H29.9337C31.6926 21.1646 33.1074 22.5575 33.1839 24.2893V30.6893C33.1457 32.1952 32.075 33.4752 30.5838 33.7764V40.7788C30.5838 42.0588 29.5131 43.1129 28.213 43.1129H27.1806C25.8805 43.1129 24.8099 42.0588 24.8099 40.7788V33.8141C23.2804 33.5129 22.2097 32.2329 22.2097 30.727V24.3269C22.2097 22.5575 23.6627 21.1646 25.4217 21.1646Z" fill="#B3DE81"/>
<path fill-rule="evenodd" clip-rule="evenodd" d="M16.7226 17.2451C16.7226 18.9768 15.3188 20.3806 13.5871 20.3806C11.8555 20.3806 10.4517 18.9768 10.4517 17.2451C10.4517 15.5134 11.8555 14.1096 13.5871 14.1096C15.3188 14.1096 16.7226 15.5134 16.7226 17.2451ZM11.3119 21.1646H15.824C17.5829 21.1646 18.9977 22.5575 19.0742 24.2893V30.6893C19.0359 32.1952 17.9653 33.4752 16.474 33.7764V40.7788C16.474 42.0588 15.4034 43.1129 14.1033 43.1129H13.0709C11.7708 43.1129 10.7001 42.0588 10.7001 40.7788V33.8141C9.17063 33.5129 8.09998 32.2329 8.09998 30.727V24.3269C8.09998 22.5575 9.553 21.1646 11.3119 21.1646Z" fill="#B3DE81"/>
<path fill-rule="evenodd" clip-rule="evenodd" d="M36.3193 17.2451C36.3193 18.9768 34.9155 20.3806 33.1838 20.3806C31.4521 20.3806 30.0483 18.9768 30.0483 17.2451C30.0483 15.5134 31.4521 14.1096 33.1838 14.1096C34.9155 14.1096 36.3193 15.5134 36.3193 17.2451ZM30.9087 21.1646H35.4208C37.1797 21.1646 38.5945 22.5575 38.671 24.2893V30.6893C38.6327 32.1952 37.5621 33.4752 36.0708 33.7764V40.7788C36.0708 42.0588 35.0002 43.1129 33.7001 43.1129H32.6677C31.3676 43.1129 30.2969 42.0588 30.2969 40.7788V33.8141C28.7674 33.5129 27.6968 32.2329 27.6968 30.727V24.3269C27.6968 22.5575 29.1498 21.1646 30.9087 21.1646Z" fill="white"/>
<path fill-rule="evenodd" clip-rule="evenodd" d="M22.9935 17.2451C22.9935 18.9768 21.5897 20.3806 19.858 20.3806C18.1263 20.3806 16.7225 18.9768 16.7225 17.2451C16.7225 15.5134 18.1263 14.1096 19.858 14.1096C21.5897 14.1096 22.9935 15.5134 22.9935 17.2451ZM17.5829 21.1646H22.095C23.8539 21.1646 25.2687 22.5575 25.3452 24.2893V30.6893C25.3069 32.1952 24.2363 33.4752 22.745 33.7764V40.7788C22.745 42.0588 21.6744 43.1129 20.3743 43.1129H19.3419C18.0418 43.1129 16.9711 42.0588 16.9711 40.7788V33.8141C15.4416 33.5129 14.371 32.2329 14.371 30.727V24.3269C14.371 22.5575 15.824 21.1646 17.5829 21.1646Z" fill="white"/>
<path d="M18.5114 71.9258V68.2675H14.9753V69.3374H17.3599C17.2987 69.959 16.7484 70.9577 15.2912 70.9577C14.048 70.9577 12.9067 70.0711 12.9067 68.3082C12.9067 66.5147 14.1295 65.6791 15.3014 65.6791C16.4529 65.6791 17.1662 66.3721 17.4108 67.1873L18.5623 66.7491C18.1751 65.5568 17.0541 64.548 15.3014 64.548C13.4264 64.548 11.6635 65.9339 11.6635 68.3082C11.6635 70.6928 13.3347 72.0786 15.2199 72.0786C16.3714 72.0786 17.1153 71.5385 17.4312 71.0087L17.5229 71.9258H18.5114ZM22.7955 66.9325C22.7446 66.9223 22.6223 66.902 22.4796 66.902C21.8274 66.902 21.2772 67.2179 21.0428 67.7579V66.9631H19.8913V71.9258H21.0734V69.5616C21.0734 68.6343 21.4912 68.1044 22.4083 68.1044C22.5306 68.1044 22.663 68.1146 22.7955 68.135V66.9325ZM25.9133 71.0188C25.1898 71.0188 24.5274 70.4686 24.5274 69.4393C24.5274 68.4101 25.1898 67.8802 25.9133 67.8802C26.647 67.8802 27.2992 68.4101 27.2992 69.4393C27.2992 70.4788 26.647 71.0188 25.9133 71.0188ZM25.9133 66.8102C24.4357 66.8102 23.3453 67.921 23.3453 69.4393C23.3453 70.9679 24.4357 72.0786 25.9133 72.0786C27.4011 72.0786 28.4914 70.9679 28.4914 69.4393C28.4914 67.921 27.4011 66.8102 25.9133 66.8102ZM32.8343 71.3755C32.8343 71.5793 32.8546 71.8137 32.875 71.9258H34.0061C33.9858 71.7424 33.9552 71.4265 33.9552 71.0188V66.9631H32.7731V69.8979C32.7731 70.5501 32.4165 71.0087 31.7337 71.0087C31.0204 71.0087 30.7351 70.4889 30.7351 69.8775V66.9631H29.553V70.0915C29.553 71.1921 30.2459 72.0684 31.428 72.0684C32.0088 72.0684 32.5897 71.8239 32.8343 71.3755ZM36.6571 73.8619V71.3653C36.9119 71.7424 37.452 72.0481 38.1653 72.0481C39.592 72.0481 40.4989 70.9271 40.4989 69.4393C40.4989 67.9719 39.6735 66.851 38.2061 66.851C37.4418 66.851 36.8711 67.2077 36.6266 67.6357V66.9631H35.4853V73.8619H36.6571ZM39.3168 69.4393C39.3168 70.387 38.7665 70.9985 37.9819 70.9985C37.2074 70.9985 36.647 70.387 36.647 69.4393C36.647 68.512 37.2074 67.9006 37.9819 67.9006C38.7767 67.9006 39.3168 68.512 39.3168 69.4393Z" fill="#4C8E00"/>
</svg>
