<svg width="9" height="14" viewBox="0 0 9 14" fill="none" xmlns="http://www.w3.org/2000/svg">
<path fill-rule="evenodd" clip-rule="evenodd" d="M6.29309 1.15592C6.29309 1.79489 5.77293 2.31184 5.13717 2.31184C4.4982 2.31184 3.98125 1.79489 3.98125 1.15592C3.98125 0.516954 4.4982 0 5.13717 0C5.77293 0 6.29309 0.516954 6.29309 1.15592ZM8.34832 5.71583C8.34832 6.03503 8.08955 6.29379 7.77036 6.29379H5.47323C5.31284 6.29379 5.16436 6.20916 5.08263 6.07117C4.87653 5.72319 4.3526 5.7981 4.25226 6.18989L4.11851 6.71213C4.07587 6.87864 4.09813 7.05514 4.18079 7.20585L5.55876 9.71829C5.61939 9.82883 5.65117 9.95287 5.65117 10.0789V13.422C5.65117 13.7412 5.39241 13.9999 5.07321 13.9999C4.75401 13.9999 4.49525 13.7412 4.49525 13.422V11.0388C4.49525 10.8767 4.4427 10.7189 4.34548 10.5891L3.8389 9.91297C3.4798 9.43366 2.73144 9.54785 2.53164 10.1125L1.29264 13.6136C1.2107 13.8451 0.991723 13.9999 0.746089 13.9999C0.367806 13.9999 0.0908472 13.6435 0.184282 13.277L2.25998 5.13364C2.3683 4.70867 1.96879 4.32945 1.55004 4.45975C1.31563 4.53269 1.15592 4.74964 1.15592 4.99514V6.35801C1.15592 6.67721 0.897159 6.93597 0.57796 6.93597C0.258762 6.93597 0 6.67721 0 6.35801V4.14855C0 3.82026 0.213503 3.53013 0.526933 3.43249L3.48382 2.51136C3.58335 2.48246 3.68931 2.46641 3.79848 2.46641C4.19663 2.46641 4.54662 2.67833 4.73606 2.99941L5.8019 4.77402C5.93748 4.99977 6.18152 5.13787 6.44485 5.13787H7.77036C8.08955 5.13787 8.34832 5.39663 8.34832 5.71583Z" fill="#303634" fill-opacity="0.27"/>
</svg>
