<svg width="27" height="27" viewBox="0 0 27 27" fill="none" xmlns="http://www.w3.org/2000/svg">
<path fill-rule="evenodd" clip-rule="evenodd" d="M21.875 11.9375C21.875 17.4258 17.4258 21.875 11.9375 21.875C6.44917 21.875 2 17.4258 2 11.9375C2 6.44917 6.44917 2 11.9375 2C17.4258 2 21.875 6.44917 21.875 11.9375ZM19.1332 20.1749C17.21 21.8562 14.6927 22.875 11.9375 22.875C5.89689 22.875 1 17.9781 1 11.9375C1 5.89689 5.89689 1 11.9375 1C17.9781 1 22.875 5.89689 22.875 11.9375C22.875 14.863 21.7264 17.5203 19.8556 19.483L25.6655 25.2929L24.9584 26L19.1332 20.1749Z" fill="black"/>
<path d="M19.1332 20.1749L19.4868 19.8213L19.1562 19.4907L18.8041 19.7984L19.1332 20.1749ZM19.8556 19.483L19.4936 19.138L19.1568 19.4913L19.502 19.8365L19.8556 19.483ZM25.6655 25.2929L26.019 25.6464L26.3726 25.2929L26.019 24.9393L25.6655 25.2929ZM24.9584 26L24.6048 26.3535L24.9584 26.7071L25.3119 26.3535L24.9584 26ZM11.9375 22.375C17.702 22.375 22.375 17.702 22.375 11.9375H21.375C21.375 17.1497 17.1497 21.375 11.9375 21.375V22.375ZM1.5 11.9375C1.5 17.702 6.17303 22.375 11.9375 22.375V21.375C6.72532 21.375 2.5 17.1497 2.5 11.9375H1.5ZM11.9375 1.5C6.17303 1.5 1.5 6.17303 1.5 11.9375H2.5C2.5 6.72532 6.72532 2.5 11.9375 2.5V1.5ZM22.375 11.9375C22.375 6.17303 17.702 1.5 11.9375 1.5V2.5C17.1497 2.5 21.375 6.72532 21.375 11.9375H22.375ZM11.9375 23.375C14.8183 23.375 17.4515 22.3093 19.4623 20.5513L18.8041 19.7984C16.9686 21.4032 14.5672 22.375 11.9375 22.375V23.375ZM0.5 11.9375C0.5 18.2543 5.62075 23.375 11.9375 23.375V22.375C6.17303 22.375 1.5 17.702 1.5 11.9375H0.5ZM11.9375 0.5C5.62075 0.5 0.5 5.62075 0.5 11.9375H1.5C1.5 6.17303 6.17303 1.5 11.9375 1.5V0.5ZM23.375 11.9375C23.375 5.62075 18.2543 0.5 11.9375 0.5V1.5C17.702 1.5 22.375 6.17303 22.375 11.9375H23.375ZM20.2175 19.8279C22.1734 17.776 23.375 14.9966 23.375 11.9375H22.375C22.375 14.7295 21.2794 17.2646 19.4936 19.138L20.2175 19.8279ZM19.502 19.8365L25.3119 25.6464L26.019 24.9393L20.2091 19.1294L19.502 19.8365ZM25.3119 24.9393L24.6048 25.6464L25.3119 26.3535L26.019 25.6464L25.3119 24.9393ZM25.3119 25.6464L19.4868 19.8213L18.7797 20.5284L24.6048 26.3535L25.3119 25.6464Z" fill="black"/>
</svg>
