<svg width="75" height="100" viewBox="0 0 75 100" fill="none" xmlns="http://www.w3.org/2000/svg">
<rect width="75" height="100" rx="15" fill="#4C8E00"/>
<path fill-rule="evenodd" clip-rule="evenodd" d="M41.7807 13.3123C41.7807 14.7115 40.6416 15.8435 39.2494 15.8435C37.8502 15.8435 36.7182 14.7115 36.7182 13.3123C36.7182 11.913 37.8502 10.781 39.2494 10.781C40.6416 10.781 41.7807 11.913 41.7807 13.3123ZM46.2813 23.8134C46.2813 24.2276 45.9455 24.5634 45.5313 24.5634H39.8462C39.5813 24.5634 39.3359 24.4236 39.2009 24.1956L38.8297 23.5689C38.4892 22.994 37.6236 23.1177 37.4579 23.765L36.9469 25.76C36.8997 25.9444 36.9244 26.1399 37.0159 26.3068L40.2826 32.2629C40.3432 32.3734 40.375 32.4975 40.375 32.6236V40.6884C40.375 41.1026 40.0392 41.4384 39.625 41.4384H38.5938C38.1795 41.4384 37.8438 41.1026 37.8438 40.6884V34.657C37.8438 34.4948 37.7912 34.337 37.694 34.2073L35.4071 31.1548C35.048 30.6755 34.2997 30.7897 34.0999 31.3543L30.7081 40.9386C30.6021 41.2382 30.3188 41.4384 30.0011 41.4384H28.9652C28.4758 41.4384 28.1175 40.9774 28.2384 40.5032L33.1601 21.1946C33.3049 20.6262 32.7706 20.119 32.2105 20.2932L31.0584 20.6517C30.7449 20.7493 30.5313 21.0395 30.5313 21.3679V25.2197C30.5313 25.6339 30.1955 25.9697 29.7813 25.9697H28.75C28.3358 25.9697 28 25.6339 28 25.2197V19.2091C28 18.8808 28.2135 18.5907 28.5269 18.493L35.6289 16.2806C35.8469 16.2173 36.0789 16.1822 36.318 16.1822C37.1898 16.1822 37.9563 16.6462 38.3711 17.3493L40.9651 21.6683C41.1007 21.8941 41.3447 22.0322 41.608 22.0322H45.5313C45.9455 22.0322 46.2813 22.3679 46.2813 22.7822V23.8134Z" fill="white"/>
<path d="M26.2899 60.1767L24.6422 55.0872H23.4234L21.8049 60.1377L20.4204 55.0872H19.1919L21.1517 62H22.3509L24.0279 56.774L25.7049 62H26.9139L28.8542 55.0872H27.6452L26.2899 60.1767ZM29.1206 60.713C29.1206 61.4637 29.7349 62.1463 30.7294 62.1463C31.4996 62.1463 31.9676 61.7562 32.1919 61.3955C32.1919 61.7757 32.2309 61.9707 32.2406 62H33.2936C33.2839 61.9512 33.2351 61.6685 33.2351 61.2395V58.88C33.2351 57.9342 32.6794 57.1055 31.2169 57.1055C30.0469 57.1055 29.3059 57.8367 29.2181 58.6557L30.2516 58.8897C30.3004 58.412 30.6319 58.0317 31.2266 58.0317C31.8506 58.0317 32.1236 58.3535 32.1236 58.7532C32.1236 58.919 32.0456 59.0555 31.7726 59.0945L30.5539 59.2797C29.7446 59.3967 29.1206 59.8647 29.1206 60.713ZM30.9439 61.259C30.4954 61.259 30.2516 60.9665 30.2516 60.6447C30.2516 60.2547 30.5344 60.0597 30.8854 60.0012L32.1236 59.816V60.0305C32.1236 60.9567 31.5776 61.259 30.9439 61.259ZM35.7334 62V54.941H34.6024V62H35.7334ZM41.6382 57.2517H40.1367L38.3134 59.1725V54.941H37.1922V62H38.3134V60.674L38.8984 60.0597L40.2927 62H41.6772L39.6882 59.2602L41.6382 57.2517ZM43.6169 62V57.2517H42.4957V62H43.6169ZM42.3202 55.5845C42.3202 55.994 42.6517 56.3157 43.0514 56.3157C43.4609 56.3157 43.7924 55.994 43.7924 55.5845C43.7924 55.175 43.4609 54.8435 43.0514 54.8435C42.6517 54.8435 42.3202 55.175 42.3202 55.5845ZM46.207 59.2602C46.207 58.6362 46.5482 58.139 47.1917 58.139C47.9035 58.139 48.1667 58.607 48.1667 59.192V62H49.2977V58.997C49.2977 57.9537 48.742 57.1152 47.5817 57.1152C47.0552 57.1152 46.4897 57.3395 46.1777 57.8855V57.2517H45.076V62H46.207V59.2602ZM50.3334 62.2633C50.4601 63.2188 51.3376 63.9988 52.5954 63.9988C54.3796 63.9988 55.0329 62.819 55.0329 61.5515V57.2517H53.9409V57.8562C53.7361 57.4662 53.2779 57.164 52.5369 57.164C51.2304 57.164 50.3431 58.2072 50.3431 59.4747C50.3431 60.8105 51.2694 61.7855 52.5369 61.7855C53.2291 61.7855 53.7069 61.4637 53.9116 61.0932V61.5905C53.9116 62.5558 53.4631 63.014 52.5661 63.014C51.9129 63.014 51.4546 62.5753 51.3766 61.9902L50.3334 62.2633ZM52.7221 60.8202C51.9811 60.8202 51.4839 60.3035 51.4839 59.4747C51.4839 58.6655 52.0006 58.139 52.7221 58.139C53.4241 58.139 53.9409 58.6655 53.9409 59.4747C53.9409 60.2937 53.4436 60.8202 52.7221 60.8202Z" fill="white"/>
</svg>
