<svg width="55" height="76" viewBox="0 0 55 76" fill="none" xmlns="http://www.w3.org/2000/svg">
<rect x="0.56613" y="0.391935" width="53.3032" height="55.6548" rx="15.2855" stroke="#E8E8F2" stroke-width="0.783871"/>
<path fill-rule="evenodd" clip-rule="evenodd" d="M36.2323 17.2451C36.2323 18.9768 34.8285 20.3806 33.0968 20.3806C31.3651 20.3806 29.9613 18.9768 29.9613 17.2451C29.9613 15.5134 31.3651 14.1096 33.0968 14.1096C34.8285 14.1096 36.2323 15.5134 36.2323 17.2451ZM30.8216 21.1646H35.3336C37.0925 21.1646 38.5073 22.5575 38.5838 24.2893V30.6893C38.5456 32.1952 37.4749 33.4752 35.9837 33.7764V40.7788C35.9837 42.0588 34.913 43.1129 33.6129 43.1129H32.5805C31.2804 43.1129 30.2098 42.0588 30.2098 40.7788V33.8141C28.6803 33.5129 27.6096 32.2329 27.6096 30.727V24.3269C27.6096 22.5575 29.0626 21.1646 30.8216 21.1646Z" fill="#9C9FAD"/>
<path fill-rule="evenodd" clip-rule="evenodd" d="M29.9613 17.2451C29.9613 18.9768 28.5575 20.3806 26.8258 20.3806C25.0941 20.3806 23.6903 18.9768 23.6903 17.2451C23.6903 15.5134 25.0941 14.1096 26.8258 14.1096C28.5575 14.1096 29.9613 15.5134 29.9613 17.2451ZM24.5507 21.1646H29.0627C30.8217 21.1646 32.2365 22.5575 32.3129 24.2893V30.6893C32.2747 32.1952 31.204 33.4752 29.7128 33.7764V40.7788C29.7128 42.0588 28.6421 43.1129 27.342 43.1129H26.3096C25.0096 43.1129 23.9389 42.0588 23.9389 40.7788V33.8141C22.4094 33.5129 21.3387 32.2329 21.3387 30.727V24.3269C21.3387 22.5575 22.7918 21.1646 24.5507 21.1646Z" fill="#6C6D75"/>
<path fill-rule="evenodd" clip-rule="evenodd" d="M22.9065 17.2451C22.9065 18.9768 21.5027 20.3806 19.771 20.3806C18.0393 20.3806 16.6355 18.9768 16.6355 17.2451C16.6355 15.5134 18.0393 14.1096 19.771 14.1096C21.5027 14.1096 22.9065 15.5134 22.9065 17.2451ZM17.4958 21.1646H22.0078C23.7667 21.1646 25.1815 22.5575 25.258 24.2893V30.6893C25.2198 32.1952 24.1491 33.4752 22.6579 33.7764V40.7788C22.6579 42.0588 21.5872 43.1129 20.2871 43.1129H19.2547C17.9546 43.1129 16.884 42.0588 16.884 40.7788V33.8141C15.3545 33.5129 14.2838 32.2329 14.2838 30.727V24.3269C14.2838 22.5575 15.7368 21.1646 17.4958 21.1646Z" fill="#9C9FAD"/>
<path d="M10.8858 71.9258V69.0113H13.8206V67.8802H10.8858V65.8523H14.1569V64.7008H9.66293V71.9258H10.8858ZM17.8291 66.9325C17.7782 66.9223 17.6559 66.902 17.5132 66.902C16.861 66.902 16.3108 67.2179 16.0764 67.7579V66.9631H14.9249V71.9258H16.107V69.5616C16.107 68.6343 16.5248 68.1044 17.4419 68.1044C17.5642 68.1044 17.6966 68.1146 17.8291 68.135V66.9325ZM19.9878 71.9258V66.9631H18.8159V71.9258H19.9878ZM18.6325 65.2205C18.6325 65.6485 18.979 65.9848 19.3968 65.9848C19.8248 65.9848 20.1712 65.6485 20.1712 65.2205C20.1712 64.7926 19.8248 64.4461 19.3968 64.4461C18.979 64.4461 18.6325 64.7926 18.6325 65.2205ZM22.3382 68.8993C22.3789 68.3694 22.8069 67.7987 23.5508 67.7987C24.3661 67.7987 24.7533 68.3184 24.7737 68.8993H22.3382ZM24.9061 70.1934C24.7431 70.6826 24.3762 71.0596 23.6629 71.0596C22.9292 71.0596 22.3382 70.5195 22.3076 69.7654H25.9354C25.9456 69.7451 25.9659 69.582 25.9659 69.3884C25.9659 67.8191 25.0692 66.8102 23.5406 66.8102C22.2872 66.8102 21.1255 67.8497 21.1255 69.419C21.1255 71.1004 22.3178 72.0786 23.6629 72.0786C24.8552 72.0786 25.6398 71.3755 25.9048 70.5093L24.9061 70.1934ZM28.2776 69.0623C28.2776 68.4101 28.6343 67.8904 29.3068 67.8904C30.0507 67.8904 30.3259 68.3795 30.3259 68.991V71.9258H31.508V68.7872C31.508 67.6968 30.9271 66.8204 29.7145 66.8204C29.1642 66.8204 28.5731 67.0548 28.2471 67.6255V66.9631H27.0955V71.9258H28.2776V69.0623ZM33.7419 69.4292C33.7419 68.4815 34.3125 67.8802 35.087 67.8802C35.8615 67.8802 36.3913 68.4713 36.3913 69.419C36.3913 70.3667 35.8513 71.0087 35.0768 71.0087C34.2718 71.0087 33.7419 70.3769 33.7419 69.4292ZM37.5327 64.548H36.3812V67.5439C36.2283 67.228 35.7901 66.8306 34.9239 66.8306C33.5279 66.8306 32.5598 68.0025 32.5598 69.4292C32.5598 70.9271 33.5177 72.0481 34.9443 72.0481C35.6475 72.0481 36.1672 71.7016 36.4015 71.2838C36.4015 71.4876 36.4321 71.8137 36.4525 71.9258H37.5836C37.5734 71.8443 37.5327 71.4672 37.5327 71.0188V64.548ZM38.639 70.5807C38.7001 71.1411 39.2504 72.0786 40.6872 72.0786C41.9508 72.0786 42.5622 71.243 42.5622 70.4889C42.5622 69.7552 42.0731 69.1846 41.1356 68.9808L40.3815 68.8279C40.0758 68.7668 39.8822 68.5732 39.8822 68.3082C39.8822 68.0025 40.1777 67.7376 40.5955 67.7376C41.2579 67.7376 41.4719 68.1961 41.5126 68.4815L42.5113 68.1961C42.4298 67.707 41.9814 66.8102 40.5955 66.8102C39.5663 66.8102 38.7714 67.5439 38.7714 68.4101C38.7714 69.0929 39.23 69.6635 40.1064 69.8571L40.8401 70.0202C41.2375 70.1017 41.4209 70.3055 41.4209 70.5705C41.4209 70.8762 41.1662 71.1411 40.677 71.1411C40.0452 71.1411 39.7089 70.7437 39.6682 70.2953L38.639 70.5807Z" fill="#34423D"/>
</svg>
