<svg width="55" height="76" viewBox="0 0 55 76" fill="none" xmlns="http://www.w3.org/2000/svg">
<rect x="0.391935" y="0.391935" width="53.3032" height="55.6548" rx="15.2855" stroke="#E8E8F2" stroke-width="0.783871"/>
<path fill-rule="evenodd" clip-rule="evenodd" d="M30.571 17.2451C30.571 18.9768 29.1672 20.3806 27.4355 20.3806C25.7039 20.3806 24.3 18.9768 24.3 17.2451C24.3 15.5134 25.7039 14.1096 27.4355 14.1096C29.1672 14.1096 30.571 15.5134 30.571 17.2451ZM25.1603 21.1646H29.6724C31.4313 21.1646 32.8461 22.5575 32.9226 24.2893V30.6893C32.8843 32.1952 31.8137 33.4752 30.3224 33.7764V40.7788C30.3224 42.0588 29.2517 43.1129 27.9517 43.1129H26.9193C25.6192 43.1129 24.5485 42.0588 24.5485 40.7788V33.8141C23.019 33.5129 21.9484 32.2329 21.9484 30.727V24.3269C21.9484 22.5575 23.4014 21.1646 25.1603 21.1646Z" fill="#6C6D75"/>
<path d="M22.86 66.3924C22.6969 65.5874 22.0346 64.548 20.3328 64.548C18.9877 64.548 17.8769 65.5466 17.8769 66.7593C17.8769 67.8395 18.6106 68.563 19.7112 68.7872L20.7302 69.0012C21.3518 69.1336 21.6983 69.5107 21.6983 69.9794C21.6983 70.5399 21.2499 70.9781 20.3837 70.9781C19.3443 70.9781 18.8042 70.2851 18.7329 69.5311L17.5916 69.8571C17.7037 70.8966 18.5495 72.0786 20.3837 72.0786C22.0346 72.0786 22.9415 71.0087 22.9415 69.8877C22.9415 68.8687 22.2588 68.0636 20.985 67.8089L19.9456 67.5949C19.3851 67.4726 19.0998 67.1261 19.0998 66.6676C19.0998 66.1173 19.6093 65.6282 20.343 65.6282C21.3111 65.6282 21.6881 66.2905 21.7594 66.7389L22.86 66.3924ZM26.2207 71.0188C25.4972 71.0188 24.8348 70.4686 24.8348 69.4393C24.8348 68.4101 25.4972 67.8802 26.2207 67.8802C26.9544 67.8802 27.6066 68.4101 27.6066 69.4393C27.6066 70.4788 26.9544 71.0188 26.2207 71.0188ZM26.2207 66.8102C24.7431 66.8102 23.6528 67.921 23.6528 69.4393C23.6528 70.9679 24.7431 72.0786 26.2207 72.0786C27.7085 72.0786 28.7989 70.9679 28.7989 69.4393C28.7989 67.921 27.7085 66.8102 26.2207 66.8102ZM31.1233 71.9258V64.548H29.9412V71.9258H31.1233ZM34.8288 71.0188C34.1052 71.0188 33.4429 70.4686 33.4429 69.4393C33.4429 68.4101 34.1052 67.8802 34.8288 67.8802C35.5625 67.8802 36.2146 68.4101 36.2146 69.4393C36.2146 70.4788 35.5625 71.0188 34.8288 71.0188ZM34.8288 66.8102C33.3512 66.8102 32.2608 67.921 32.2608 69.4393C32.2608 70.9679 33.3512 72.0786 34.8288 72.0786C36.3165 72.0786 37.4069 70.9679 37.4069 69.4393C37.4069 67.921 36.3165 66.8102 34.8288 66.8102Z" fill="#34423D"/>
</svg>
