<svg width="16" height="16" viewBox="0 0 16 16" fill="none" xmlns="http://www.w3.org/2000/svg">
<path d="M7.428 9.3L7.188 4.08H8.7L8.472 9.3H7.428ZM7.02 11.208C7.02 10.936 7.108 10.712 7.284 10.536C7.468 10.36 7.692 10.272 7.956 10.272C8.22 10.272 8.44 10.36 8.616 10.536C8.792 10.712 8.88 10.936 8.88 11.208C8.88 11.472 8.792 11.692 8.616 11.868C8.44 12.044 8.22 12.132 7.956 12.132C7.692 12.132 7.468 12.044 7.284 11.868C7.108 11.692 7.02 11.472 7.02 11.208Z" fill="#F50000"/>
<circle cx="8" cy="8" r="7.5" stroke="#F50000"/>
</svg>
